<svg width="252" height="97" viewBox="0 0 252 97" fill="none" xmlns="http://www.w3.org/2000/svg">
<path d="M14.6612 73.8334L15.7442 72.8338L16.1607 71.5009V70.418L16.244 69.3351L16.3273 68.1688L16.4939 67.0859V64.92L16.8271 63.9204L16.9104 62.8375V61.6712L17.077 60.505L17.2436 59.4221L17.1603 58.3391L17.2436 57.4228L17.4102 56.3399V55.2569L17.7434 54.0907V53.0078L17.91 51.9248L17.9933 50.8419L18.1599 49.759L18.3266 48.7593L18.6598 47.5931V46.5935L19.1596 44.261L19.2429 43.2614L19.5761 42.2617V41.1788L19.9926 40.0959L20.1592 39.0963L20.5757 37.93L20.659 36.9304L20.9089 35.7642L21.492 34.7645L21.6587 33.7649L22.0752 32.682L22.2418 31.6823L22.6583 30.766L23.1581 29.6831L23.9911 27.8504L24.6575 26.8508L25.6572 25.0181L26.3236 24.2684L27.0733 23.3521L27.823 22.6024L28.4895 21.8526L29.1559 21.1862L30.0722 20.6031L30.9052 20.02L31.8216 19.6035L32.8212 19.2703L33.7375 18.937L34.9037 18.6038L36.4032 18.5205L38.1525 18.6038L38.9856 18.7704L39.9852 19.1037L41.7346 20.4365L42.1511 21.2695L42.7342 22.2691L43.0674 23.2688L43.1507 24.3517V25.5179L43.0674 26.5176L42.9841 27.6838L42.6509 28.6834L42.2344 29.7664L41.9845 30.766L41.318 31.6823L40.6516 32.5154L40.0685 33.515L38.7357 34.5979L38.0692 35.3476L36.7364 36.4306L35.9034 37.097L34.9871 37.6801L34.0707 38.3465L32.9878 38.763L32.2381 39.3462L29.6557 40.4291L28.4895 41.512L28.8227 42.595L30.0722 43.2614L31.7383 43.6779H32.9045L33.9041 43.7612L35.237 43.9278L36.7364 44.1777L38.3191 44.6775L40.5683 45.4272L41.4846 45.9271L42.3177 46.5102L43.4006 47.1766L44.067 47.9263L45.15 49.1759L46.0663 50.3421L46.5661 51.3417L46.8993 52.258L47.1492 53.2577L47.5657 54.3406L47.7323 55.3402L47.8156 56.4232V57.5061L47.7323 58.589L47.5657 59.5887L47.3158 60.6716L46.8993 61.7545L46.4828 62.7542L45.8164 63.6705L45.3999 64.5868L44.8167 65.5031L43.9837 66.2529L41.4846 68.0855L40.6516 68.6686L39.5687 69.1685L38.6524 69.4184L36.6531 70.0848L35.6535 70.3347L34.3206 70.418H33.4043L32.4047 70.3347L31.1551 70.1681L30.3221 69.8349L29.3225 69.585L28.3228 69.2518L27.3232 68.8352L26.157 68.502L25.324 67.9189L24.4076 67.4191L23.0748 66.836L21.8253 67.0859L21.492 68.0855L21.9919 69.4184L23.0748 70.418L25.0741 71.5009L26.0737 72.0007L26.9067 72.3339L27.9896 72.7505L28.9893 73.0004L30.0722 73.3336L32.1548 73.5835L33.0711 73.6668L34.154 73.7501L35.3203 73.6668H36.2366L37.4028 73.4169L38.4858 73.2503L39.4854 73.0837L40.3184 72.6672L41.9845 72.0007L43.3173 71.0844L44.5668 70.1681L45.8164 69.0852L46.6494 68.4187L47.4824 67.5024L47.9822 66.7527L48.8153 65.8364L49.1485 65.0033L49.8149 64.0037L50.3147 63.0041L50.6479 62.0877L51.0644 61.0048L50.9811 59.8386L51.3143 58.8389V56.6731L51.4809 55.5068L51.3143 54.4239L51.0644 53.4243L50.8978 52.3413L50.4813 51.3417L49.8982 50.2588L49.4817 49.3425L49.0652 48.3428L48.3155 47.5098L47.5657 46.7601L47.0659 45.9271L46.0663 45.1773L45.0667 44.5109L44.1503 43.8445L42.9841 43.0115L40.4017 41.9285L39.3188 41.5953L38.3191 41.3454L37.1529 41.1788L36.1533 40.9289L35.5702 40.7623L36.07 40.1792L36.903 39.846L37.9026 39.2629L38.7357 38.763L39.7353 38.0133L40.485 37.3469L41.4013 36.7638L42.2344 36.0141L42.9008 35.0977L43.5672 34.2647L44.9834 32.5154L45.4832 31.599L45.8997 30.5994L46.1496 29.5165L46.816 27.5172V26.4343L46.9826 25.4346L46.8993 24.3517V23.2688L46.5661 22.2691L46.0663 20.2699L45.5665 19.3536L44.7334 18.5205L44.1503 17.6042L43.3173 17.0211L42.5676 16.438L41.4013 15.9382L40.485 15.4383L39.4854 15.2717L38.4858 15.1884L37.2362 15.1051L36.2366 15.1884L34.7371 15.2717L32.2381 15.8549L30.7386 16.6046L29.1559 17.271L28.2395 17.7708L27.4065 18.4372L26.5735 19.0203L25.9904 19.8534L25.1574 20.6864L24.4076 21.3528L23.7412 22.2691L23.2414 23.1022L22.7416 24.0185L21.9919 24.9348L21.5753 26.0178L21.0755 26.9341L20.659 28.017L20.0759 28.9333L19.826 29.8497L19.5761 30.8493L19.0763 32.0155L18.8264 32.9319L18.4932 34.0148L18.3266 35.0144L18.1599 36.0974L17.6601 37.2636L17.4102 38.1799L17.2436 39.2629V40.2625L16.9937 41.3454L16.8271 42.345L16.4939 42.0118V41.2621L16.3273 40.1792V39.1796L16.4106 38.0966L16.4939 36.9304V35.8475L16.3273 34.6812L16.244 33.6816L16.1607 32.5987L15.8275 31.599L15.6609 30.4328L15.411 29.2666L15.2444 28.1836L15.1611 27.2673L14.8278 26.1844L14.4113 25.1014L13.9948 24.1018L13.7449 23.1022L13.3284 22.0192L12.9952 21.1029L12.3288 20.1033L11.6623 19.2703L10.6627 17.8541L9.8297 16.6879L8.16365 15.1884L6.6642 14.6053H5.24806L4.91485 15.6049L5.41466 16.9378L6.24769 18.0207L7.24732 18.6871L7.99704 19.4369L8.66346 20.2699L9.07997 21.3528L9.49649 22.2691L9.9963 23.1855L10.4961 24.2684L10.8293 25.268L11.2458 26.1844L11.4124 27.2673L11.6623 28.3502L11.829 29.4332L11.9956 30.4328L12.4121 31.5157L12.4954 32.5987L12.662 33.6816L12.9119 34.7645V35.8475L13.0785 36.8471L13.2451 37.93L13.3284 38.9296V39.9293L13.2451 41.1788L13.4117 42.2617L13.3284 43.3447L13.5783 44.4276V48.676L13.6616 49.759V50.8419L13.495 51.8415L13.5783 53.0078L13.495 54.0074V55.1736L13.4117 56.2566L13.5783 57.3395L13.4117 58.3391V59.4221L13.2451 60.6716L13.1618 61.6712L13.3284 62.5876L13.1618 63.7538V64.8367L12.9119 65.9197L12.9952 66.9193L12.9119 68.1688L12.7453 70.3347V71.3343L12.9119 72.7505L13.8282 73.8334H14.6612ZM60.6904 74.2499H62.2732L63.7726 73.8334L64.9389 73.4169L65.6053 72.7505L66.4383 72.1673L67.9377 70.6679L68.6042 69.6683L69.2706 68.7519L70.1036 67.4191L71.0199 66.0863L71.6031 65.1699L72.0196 64.2536L72.6027 63.3373L72.9359 62.3377L73.3524 61.0048L73.8522 60.2551L75.6016 59.8386L76.4346 59.9219L76.6845 60.8382L76.7678 61.9211V63.0041L76.6845 64.087L76.5179 65.1699V66.2529L76.6012 67.4191L76.9344 68.4187L77.101 69.4184L77.5175 70.5013L77.8507 71.5842L78.5172 72.2506L79.2669 72.9171L80.1832 73.5835L81.2661 73.8334L84.3483 74L87.3472 73.0004L88.4302 72.2506L89.3465 71.6675L90.0129 70.8345L90.596 69.9182L91.5124 68.6686L92.4287 67.2525L93.0951 66.2529L93.5116 65.3365L94.0947 64.2536L94.5112 63.254L95.1777 62.2543L95.5942 61.4213L96.0107 60.2551L96.2606 58.9222L95.6775 57.5894L94.5112 57.8393L93.4283 59.0055L93.0951 60.0052L92.5953 61.0048L92.0122 61.9211L91.679 62.9208L90.9292 63.9204L90.3461 64.7534L89.8463 65.7531L89.2632 66.5861L88.6801 67.5024L87.9303 68.3354L87.2639 69.0018L86.3476 69.7516L85.4313 70.2514L84.5149 70.5013H82.8489L81.5994 70.0015L80.683 69.1685L80.2665 68.3354L79.85 67.1692L79.7667 66.003V64.92L79.9333 63.9204L79.85 62.8375L79.9333 61.6712L80.0166 60.6716L80.1832 59.5054L80.2665 58.4224L80.4331 57.3395L80.5164 56.1733L80.683 55.1736L80.8496 54.0074L81.0995 53.0078V51.8415L81.4328 50.8419L81.6827 49.6757L81.766 48.7593L82.0159 47.5098L82.0992 46.4269L82.2658 45.5105L82.4324 44.3443L82.6823 43.1781L82.7656 41.6786L81.9326 40.7623L80.9329 40.8456L80.0166 41.5953L79.1836 42.4284L78.1006 42.2617L76.9344 41.9285L75.7682 41.512L74.8519 41.0955L73.7689 40.9289L72.7693 40.7623L71.5198 40.8456L70.4368 40.9289L69.1873 41.0955L68.3543 41.3454L66.355 42.345L65.522 42.9282L64.6889 43.5946L64.1058 44.5109L63.5227 45.3439L63.1062 46.177L62.6064 47.2599L62.3565 48.3428L62.1066 49.8423L62.0233 51.5083L62.1899 52.5913L62.6064 53.6742L62.773 54.7571L63.1895 55.5901L64.3557 57.4228L65.1055 58.2558L65.9385 58.8389L66.8548 59.2555L67.8544 59.672L68.8541 59.9219L70.1869 60.5883L69.104 62.7542L68.5209 63.6705L68.1043 64.7534L67.5212 65.7531L67.0214 66.7527L66.355 67.669L65.522 68.502L64.8556 69.2518L64.1058 69.9182L63.3561 70.5013L61.6901 70.8345L60.1906 70.6679L59.4409 70.0848L58.7745 69.1685L58.2747 68.0855V67.0026L57.9414 65.9197V63.7538L58.1914 62.6709L58.0247 61.5046L58.2747 60.505L58.1914 59.0055L57.6915 57.6727L56.9418 57.4228L55.9422 58.5057L55.609 59.9219L55.3591 61.0048V62.0877L55.1925 63.254V64.3369L55.1092 65.5031L55.609 68.7519L55.6923 69.8349L56.1088 70.8345L56.7752 71.7508L57.275 72.5006L58.108 73.2503L59.6075 74L60.6904 74.2499ZM73.6023 57.0063H71.853L70.0203 57.0896L69.0207 56.8397L68.1043 56.4232L67.2713 55.8401L66.4383 54.8404L65.8552 53.9241L65.6053 52.8412L65.4387 51.6749V50.0089L65.7719 48.3428L66.1884 47.4265L67.3546 45.7605L68.1043 45.094L69.1873 44.5109L70.1869 44.0944L71.1032 43.8445L72.2695 43.6779L73.3524 43.7612L74.352 43.9278L75.5183 44.1777L76.3513 44.5942L77.4342 45.094L78.3506 46.177L78.5172 47.5098L78.3506 48.5927L78.184 50.9252L77.7674 52.0914V53.1744L77.6841 54.2573L76.9344 55.5068L75.6849 56.4232L74.7685 56.7564L73.6023 57.0063ZM104.919 62.8375L103.503 63.8371L102.92 65.0033L103.253 65.9197L104.752 66.2529L106.252 66.0863L107.335 66.003L108.501 66.0863L109.5 66.4195L110.417 66.7527L111.416 67.5857L112.083 68.3354L112.749 70.1681L113.082 71.251L113.499 72.3339L113.416 73.5002L113.166 74.833L112 75.916L111.083 76.4158L110.167 77.0822L109.251 77.4987L108.251 78.2484L107.418 78.7482L106.502 79.3314L105.669 79.9145L104.669 80.5809L103.753 81.164L102.92 81.8304L102.003 82.6635L101.254 83.4132L100.67 84.2462L99.9207 84.9959L99.0877 86.4121L98.7545 87.9115L98.5879 89.0778L98.5046 90.244L98.6712 91.3269L99.0877 92.3266L99.5042 93.2429L100.254 93.9926L101.337 94.659L102.336 94.9922L104.003 95.0755L105.669 94.9922L107.001 94.5757L108.501 93.9926L109.5 93.4095L110.334 92.6598L111.833 91.1603L112.666 89.9108L113.332 88.4113L114.165 86.9119L114.749 85.3291L114.915 84.4128L115.415 82.2469L115.582 81.164L115.915 80.2477L116.081 79.0815L116.165 78.1651L116.914 76.6657L117.831 75.4994L118.747 74.833L119.497 74.0833L120.08 73.2503L120.913 72.5006L121.579 71.7508L122.496 71.0844L122.995 70.2514L123.745 69.3351L124.328 68.502L124.995 67.669L125.578 66.7527L126.328 66.003L126.744 65.0033L127.577 64.087L127.91 63.1707L128.493 62.3377L128.91 61.338L129.493 60.4217L129.91 58.9222L129.326 57.756L128.077 58.0059L126.827 58.9222L126.494 60.0052L125.911 61.0881L125.411 62.0877L124.828 62.8375L124.328 63.7538L123.579 64.7534L123.079 65.7531L122.246 66.6694L120.913 68.3354L120.413 69.1685L119.413 69.9182L118.83 70.7512L117.914 71.5842L116.998 71.7508L116.664 71.0011L116.581 70.0015L116.331 69.0018L115.332 67.1692L114.665 66.2529L114.082 65.5031L113.166 64.8367L112.333 64.2536L111.25 63.8371L110.417 63.5872L109.75 63.0041L110 62.5876L110.75 61.9211L111.583 61.2547L112.249 60.505L112.916 59.5054L113.749 58.6723L114.332 57.8393L114.665 56.8397L115.248 55.8401L115.831 54.7571L116.165 53.8408L116.331 52.8412L116.581 51.7582L116.748 50.7586L116.914 49.6757V48.5927L116.581 47.5931V46.4269L116.331 45.4272L115.998 44.5109L115.498 43.5113L114.665 42.6783L114.082 41.8452L112.999 41.4287L111.916 40.8456L110.833 40.5957L110 40.5124L108.418 40.4291L106.752 40.5957L105.669 40.8456L104.752 41.2621L103.836 41.8452L103.003 42.4284L102.003 43.0948L101.337 44.0111L100.504 44.8441L100.004 45.8438L99.4209 46.6768L98.6712 47.7597L98.4213 48.5927L97.8381 49.5924L97.255 50.6753L97.0051 51.5916L96.5053 52.6746L96.0888 53.6742L95.6723 54.5905L95.0058 55.5901L94.506 56.7564V58.1725L94.7559 59.3388L96.1721 59.0889L97.0884 58.0892L97.5882 57.0896L98.0047 56.09L98.4213 55.007L98.8378 54.0907L99.4209 53.0911L99.8374 52.0914L100.504 51.0918L101.004 50.0089L101.503 49.0926L101.92 48.2595L102.42 47.3432L103.253 46.5102L103.836 45.7605L104.752 45.094L105.502 44.4276L106.418 44.0944L108.001 43.9278L109.5 44.0944L110.583 44.5109L111.416 45.094L111.916 46.0937L112.416 47.01L112.583 48.1762L112.749 49.1759L112.666 50.2588L112.499 51.425V52.4247L112.083 53.5909L111.666 54.5072L111.167 55.5901L110.833 56.5065L110.334 57.5894L109.667 58.3391L108.917 59.2555L107.418 60.9215L106.585 61.5046L104.919 62.8375ZM106.002 91.4102L104.336 91.4935L102.836 91.1603L102.503 90.3273L102.336 89.2444V88.2447L102.753 87.2451L103.919 85.4957L105.169 84.2462L106.418 83.2466L107.251 82.6635L108.084 81.9137L108.751 81.3306L109.75 80.6642L110.75 80.0811L111.5 79.498L112.333 79.4147L112.833 80.2477L112.499 81.4139L112.249 82.5802L112 83.5798L111.583 84.6627L111 85.7457L110.583 86.8286L110.084 87.8282L109.584 88.6612L107.834 90.244L107.085 90.8271L106.002 91.4102ZM136.769 74.1666L138.352 74L140.101 73.8334L141.267 73.4169L142.35 73.167L143.267 72.6672L144.1 72.084L145.932 70.8345L146.599 69.9182L147.432 69.0852L148.181 68.2521L148.848 67.3358L149.431 66.4195L149.848 65.9197L150.181 66.4195L150.431 67.5857L150.597 68.6686L150.847 69.585L151.264 70.6679L151.763 71.5009L152.43 72.3339L153.263 73.167L154.346 73.6668L155.345 73.8334L156.845 73.9167L158.344 73.4169L159.261 73.0004L160.26 72.5839L161.093 72.0007L162.593 70.5013L163.592 69.6683L164.259 68.7519L164.925 67.9189L165.342 67.0859L166.175 66.1696L166.508 65.2532L167.091 64.2536L167.591 63.254L168.257 62.2543L168.674 61.4213L169.257 60.4217L169.424 58.9222L169.007 57.5894L167.591 57.9226L166.675 59.0889L166.175 60.0885L165.675 60.9215L165.175 61.9211L164.592 63.0041L163.926 64.0037L163.343 64.92L162.676 65.7531L162.176 66.5861L161.343 67.5857L159.844 69.0852L158.927 69.6683L157.928 70.0848L156.512 70.3347L155.012 70.0015L154.263 69.1685L153.846 68.1688L153.596 67.1692L153.513 66.0863L153.43 65.0866L153.346 64.0037V61.7545L153.096 60.2551L153.263 58.589V57.5061L153.346 56.3399L153.43 55.2569L153.513 54.2573L153.43 53.0911L153.513 51.9248V50.9252L153.679 49.6757L153.929 48.676L154.096 47.5098L153.929 46.5102L154.096 45.3439L154.013 44.0944L153.846 42.6783L153.096 41.7619L152.097 41.6786L151.18 42.345L150.514 43.5113L149.181 43.0115L147.765 42.595L146.099 42.0118L143.85 41.7619L142.434 41.6786L140.601 41.8452L139.601 42.0118L138.602 42.345L137.519 42.7616L136.686 43.2614L135.769 43.8445L134.77 44.4276L133.937 45.094L133.437 45.9271L132.521 46.6768L131.854 47.4265L131.188 48.3428L130.688 49.3425L130.022 50.3421L129.605 51.1751L129.105 52.258L128.772 53.2577L128.605 54.2573L128.106 55.2569L127.772 57.4228L127.689 58.5057L127.522 59.5887L127.356 60.5883V62.9208L127.606 63.9204L127.689 64.92L128.189 67.0859L128.689 68.1688L129.105 69.0018L129.522 69.9182L130.355 70.9178L131.021 71.7508L131.854 72.2506L132.687 72.9171L133.77 73.4169L134.686 73.6668L135.603 74L136.769 74.1666ZM140.768 70.0848L139.185 70.5013L137.435 70.6679L135.353 70.1681L134.603 69.6683L133.687 69.0018L133.02 68.0855L132.521 67.2525L132.021 66.2529L131.604 65.2532L131.521 64.2536L131.604 63.0874L131.354 62.0877L131.271 61.0048L131.354 60.0052L131.438 58.9222L131.604 57.756L131.854 56.6731L132.271 55.5901L132.604 54.5905L133.02 53.5909L133.187 52.6746L133.853 51.5916L134.27 50.7586L135.02 49.759L135.603 49.0092L136.353 48.1762L137.102 47.5098L138.102 46.7601L138.852 46.177L139.851 45.7605L140.851 45.4272L142.35 45.1773H143.933L144.933 45.2606L146.016 45.4272L147.099 45.7605L148.265 46.0937L149.098 46.3436L150.014 47.4265L150.347 48.7593L150.264 49.759L150.347 50.9252L150.097 52.0081V52.9245L149.848 54.0907V55.2569L149.681 56.2566L149.181 58.4224L148.765 60.0052L148.431 61.5879L147.848 63.0041L147.015 64.5035L146.682 65.5031L146.016 66.3362L145.183 67.0859L144.35 67.9189L143.517 68.6686L142.767 69.2518L141.684 69.7516L140.768 70.0848ZM205.709 57.5894L204.626 57.9226L203.543 59.0055L203.127 60.0052L202.377 61.0048L201.96 61.9211L201.461 62.9208L200.628 63.7538L200.044 64.6701L199.461 65.6698L198.628 66.5861L198.045 67.3358L197.295 68.2521L196.379 69.0018L195.463 69.5017L194.546 70.0848L193.13 70.418L191.631 69.9182L191.214 69.1685L190.631 68.0855L190.381 67.0026L190.215 66.0863L190.048 64.92V63.8371L190.131 62.6709L189.965 61.6712L190.131 60.7549L190.215 59.5054L189.965 58.4224L190.048 57.5061L190.215 56.2566L190.298 55.3402L190.381 54.174V53.1744L190.881 51.0085L190.964 49.9256V48.9259L191.214 47.7597V46.6768L191.464 45.5938L191.631 44.6775L191.381 43.0948L190.548 41.8452L189.632 41.7619L188.632 42.7616L187.966 44.3443L187.882 45.5105L187.632 46.5102L187.466 48.8426L187.216 50.0089L187.049 52.1747L186.966 53.341L186.633 54.9237L184.633 55.007L183.134 54.9237H181.635L178.469 55.007L176.303 54.9237L174.804 55.0903H173.638L172.638 55.1736L170.972 55.2569L171.055 53.6742L171.222 52.5913L171.305 51.3417L171.555 50.3421L171.472 49.0926L171.555 48.0929L171.472 46.8434L171.722 45.8438L171.805 44.6775L171.722 43.0115L170.972 41.8452L169.889 41.9285L168.806 42.9282L168.14 44.4276L168.223 45.5105L168.14 46.5935L167.973 47.5931L167.806 48.676V49.8423L167.556 50.9252V52.0081L167.723 53.1744L167.473 54.174L167.39 55.2569L167.307 56.4232V57.5061L167.223 58.589V59.7553L167.14 60.7549L167.307 61.8378L167.057 63.0041V64.1703L166.89 65.3365L166.973 66.3362L166.89 67.4191L166.807 68.5853V69.5017L166.723 70.6679L166.89 71.8341L167.307 73.167L168.223 74H169.139L170.222 73.0837L170.472 71.6675V70.6679L170.555 69.6683L170.389 68.6686L170.472 67.5857L170.639 66.5861L170.555 65.3365V64.3369L170.722 63.3373L170.805 62.2543V61.2547L170.972 60.1718L171.138 58.589L172.305 58.4224L173.971 58.3391L175.47 58.1725L177.136 58.0892H179.719L180.802 58.1725H181.968L184.55 58.2558L186.383 58.4224L186.466 59.9219L186.549 61.0048V62.0877L186.383 63.254L186.3 64.5035L186.549 65.5031L186.716 67.8356L186.799 68.8352L187.133 70.0015L187.632 71.0011L188.299 71.9174L188.882 72.7505L189.715 73.3336L190.715 73.7501L191.797 73.9167L193.547 73.8334L194.963 73.5835L196.213 73.0837L197.962 71.9174L198.795 71.1677L199.628 70.5846L200.211 69.6683L200.961 68.9185L201.544 67.9189L202.127 67.0859L202.71 66.1696L203.293 65.0866L203.876 64.1703L204.376 63.1707L204.959 62.3377L205.626 61.2547L206.042 60.2551L206.375 58.7556L205.709 57.5894ZM239.562 57.6727L238.229 57.8393L237.313 58.9222L236.063 61.0048L235.563 62.0044L234.564 63.3373L233.814 64.7534L232.231 66.3362L231.565 67.1692L230.482 67.669L228.899 68.0855H227.316L226.317 67.7523L225.983 67.3358L226.15 67.0859L226.567 66.003V64.92L226.9 63.8371L227.15 62.8375L226.983 61.7545L227.066 60.5883V59.5887L226.733 58.5057L226.233 57.5061L225.9 56.5065L225.067 55.6734L224.401 54.8404L223.734 54.3406L222.651 53.6742L221.485 53.1744L220.569 52.8412L219.486 52.7579H217.736L216.154 52.6746L215.237 52.9245L214.238 53.0911L213.321 53.5909L212.405 53.9241L211.239 54.5072L210.406 55.007L209.823 55.7568L208.99 56.5065L208.24 56.6731L208.157 56.09L208.323 55.007L208.656 53.8408L208.823 52.9245L208.99 51.8415L209.24 50.7586L209.573 49.6757L209.823 48.676L210.489 46.6768L210.822 45.5105L211.156 44.4276L211.405 43.428L211.739 42.0118L211.239 40.679L210.239 40.1792L208.823 41.0122L208.157 42.345L207.74 43.428L207.574 44.3443L207.074 45.4272L206.907 46.5935L206.741 47.5098L206.324 48.5927L205.991 49.5091L205.824 50.5087L205.408 51.5916L205.074 53.7575L204.658 54.6738L204.575 55.8401L204.325 56.7564L204.158 57.9226L204.075 59.0055V60.0885L203.992 61.0048L204.158 62.6709L204.241 64.3369L204.408 65.3365L204.491 66.5028L204.825 67.3358L205.408 68.4187L205.907 69.2518L206.824 70.6679L207.99 71.7508L208.74 72.4173L210.073 73.167L212.572 73.9167L213.738 74.0833L215.237 74.1666L216.57 74L218.07 73.7501L219.069 73.5002L221.152 72.5839L221.985 72.084L222.901 71.4176L223.651 70.6679L223.901 70.2514L224.567 70.5013L225.65 70.8345L226.733 71.0844L228.482 71.251L229.815 71.0844L230.898 70.8345L231.898 70.418L232.898 69.9182L233.647 69.1685L234.48 68.502L235.23 67.5857L235.896 66.836L236.396 65.9197L237.146 65.0033L237.562 64.087L238.312 63.254L238.729 62.3377L239.228 61.338L239.812 60.2551L240.062 58.9222L239.562 57.6727ZM221.069 68.502L220.152 69.1685L219.403 69.6683L217.237 70.5013L213.988 70.6679L212.988 70.418L212.072 70.0015L211.156 69.5017L210.156 68.9185L209.656 68.0855L208.99 67.0859L208.656 66.0863L208.407 65.0033L207.99 63.9204L208.073 62.3377L208.656 60.8382L209.073 59.8386L209.906 59.0889L210.656 58.2558L211.572 57.5894L212.405 57.0896L213.155 56.5065L214.321 56.09L215.321 55.8401L216.987 55.6734L218.32 55.8401L219.403 56.09L220.402 56.5065L221.402 57.1729L222.235 57.8393L222.818 58.8389L223.234 59.7553L223.318 60.6716L223.568 61.8378L223.651 62.8375V63.1707H223.234L222.401 63.7538L221.652 64.5035L221.152 65.5031L221.235 66.5028L221.652 68.0022L221.069 68.502Z" fill="black"/>
<path d="M16.6612 74.8334L17.7442 73.8338L18.1607 72.5009V71.418L18.244 70.3351L18.3273 69.1688L18.4939 68.0859V65.92L18.8271 64.9204L18.9104 63.8375V62.6712L19.077 61.505L19.2436 60.4221L19.1603 59.3391L19.2436 58.4228L19.4102 57.3399V56.2569L19.7434 55.0907V54.0078L19.91 52.9248L19.9933 51.8419L20.1599 50.759L20.3266 49.7593L20.6598 48.5931V47.5935L21.1596 45.261L21.2429 44.2614L21.5761 43.2617V42.1788L21.9926 41.0959L22.1592 40.0963L22.5757 38.93L22.659 37.9304L22.9089 36.7642L23.492 35.7645L23.6587 34.7649L24.0752 33.682L24.2418 32.6823L24.6583 31.766L25.1581 30.6831L25.9911 28.8504L26.6575 27.8508L27.6572 26.0181L28.3236 25.2684L29.0733 24.3521L29.823 23.6024L30.4895 22.8526L31.1559 22.1862L32.0722 21.6031L32.9052 21.02L33.8216 20.6035L34.8212 20.2703L35.7375 19.937L36.9037 19.6038L38.4032 19.5205L40.1525 19.6038L40.9856 19.7704L41.9852 20.1037L43.7346 21.4365L44.1511 22.2695L44.7342 23.2691L45.0674 24.2688L45.1507 25.3517V26.5179L45.0674 27.5176L44.9841 28.6838L44.6509 29.6834L44.2344 30.7664L43.9845 31.766L43.318 32.6823L42.6516 33.5154L42.0685 34.515L40.7357 35.5979L40.0692 36.3476L38.7364 37.4306L37.9034 38.097L36.9871 38.6801L36.0707 39.3465L34.9878 39.763L34.2381 40.3462L31.6557 41.4291L30.4895 42.512L30.8227 43.595L32.0722 44.2614L33.7383 44.6779H34.9045L35.9041 44.7612L37.237 44.9278L38.7364 45.1777L40.3191 45.6775L42.5683 46.4272L43.4846 46.9271L44.3177 47.5102L45.4006 48.1766L46.067 48.9263L47.15 50.1759L48.0663 51.3421L48.5661 52.3417L48.8993 53.258L49.1492 54.2577L49.5657 55.3406L49.7323 56.3402L49.8156 57.4232V58.5061L49.7323 59.589L49.5657 60.5887L49.3158 61.6716L48.8993 62.7545L48.4828 63.7542L47.8164 64.6705L47.3999 65.5868L46.8167 66.5031L45.9837 67.2529L43.4846 69.0855L42.6516 69.6686L41.5687 70.1685L40.6524 70.4184L38.6531 71.0848L37.6535 71.3347L36.3206 71.418H35.4043L34.4047 71.3347L33.1551 71.1681L32.3221 70.8349L31.3225 70.585L30.3228 70.2518L29.3232 69.8352L28.157 69.502L27.324 68.9189L26.4076 68.4191L25.0748 67.836L23.8253 68.0859L23.492 69.0855L23.9919 70.4184L25.0748 71.418L27.0741 72.5009L28.0737 73.0007L28.9067 73.3339L29.9896 73.7505L30.9893 74.0004L32.0722 74.3336L34.1548 74.5835L35.0711 74.6668L36.154 74.7501L37.3203 74.6668H38.2366L39.4028 74.4169L40.4858 74.2503L41.4854 74.0837L42.3184 73.6672L43.9845 73.0007L45.3173 72.0844L46.5668 71.1681L47.8164 70.0852L48.6494 69.4187L49.4824 68.5024L49.9822 67.7527L50.8153 66.8364L51.1485 66.0033L51.8149 65.0037L52.3147 64.0041L52.6479 63.0877L53.0644 62.0048L52.9811 60.8386L53.3143 59.8389V57.6731L53.4809 56.5068L53.3143 55.4239L53.0644 54.4243L52.8978 53.3413L52.4813 52.3417L51.8982 51.2588L51.4817 50.3425L51.0652 49.3428L50.3155 48.5098L49.5657 47.7601L49.0659 46.9271L48.0663 46.1773L47.0667 45.5109L46.1503 44.8445L44.9841 44.0115L42.4017 42.9285L41.3188 42.5953L40.3191 42.3454L39.1529 42.1788L38.1533 41.9289L37.5702 41.7623L38.07 41.1792L38.903 40.846L39.9026 40.2629L40.7357 39.763L41.7353 39.0133L42.485 38.3469L43.4013 37.7638L44.2344 37.0141L44.9008 36.0977L45.5672 35.2647L46.9834 33.5154L47.4832 32.599L47.8997 31.5994L48.1496 30.5165L48.816 28.5172V27.4343L48.9826 26.4346L48.8993 25.3517V24.2688L48.5661 23.2691L48.0663 21.2699L47.5665 20.3536L46.7334 19.5205L46.1503 18.6042L45.3173 18.0211L44.5676 17.438L43.4013 16.9382L42.485 16.4383L41.4854 16.2717L40.4858 16.1884L39.2362 16.1051L38.2366 16.1884L36.7371 16.2717L34.2381 16.8549L32.7386 17.6046L31.1559 18.271L30.2395 18.7708L29.4065 19.4372L28.5735 20.0203L27.9904 20.8534L27.1574 21.6864L26.4076 22.3528L25.7412 23.2691L25.2414 24.1022L24.7416 25.0185L23.9919 25.9348L23.5753 27.0178L23.0755 27.9341L22.659 29.017L22.0759 29.9333L21.826 30.8497L21.5761 31.8493L21.0763 33.0155L20.8264 33.9319L20.4932 35.0148L20.3266 36.0144L20.1599 37.0974L19.6601 38.2636L19.4102 39.1799L19.2436 40.2629V41.2625L18.9937 42.3454L18.8271 43.345L18.4939 43.0118V42.2621L18.3273 41.1792V40.1796L18.4106 39.0966L18.4939 37.9304V36.8475L18.3273 35.6812L18.244 34.6816L18.1607 33.5987L17.8275 32.599L17.6609 31.4328L17.411 30.2666L17.2444 29.1836L17.1611 28.2673L16.8278 27.1844L16.4113 26.1014L15.9948 25.1018L15.7449 24.1022L15.3284 23.0192L14.9952 22.1029L14.3288 21.1033L13.6623 20.2703L12.6627 18.8541L11.8297 17.6879L10.1636 16.1884L8.6642 15.6053H7.24806L6.91485 16.6049L7.41466 17.9378L8.24769 19.0207L9.24732 19.6871L9.99704 20.4369L10.6635 21.2699L11.08 22.3528L11.4965 23.2691L11.9963 24.1855L12.4961 25.2684L12.8293 26.268L13.2458 27.1844L13.4124 28.2673L13.6623 29.3502L13.829 30.4332L13.9956 31.4328L14.4121 32.5157L14.4954 33.5987L14.662 34.6816L14.9119 35.7645V36.8475L15.0785 37.8471L15.2451 38.93L15.3284 39.9296V40.9293L15.2451 42.1788L15.4117 43.2617L15.3284 44.3447L15.5783 45.4276V49.676L15.6616 50.759V51.8419L15.495 52.8415L15.5783 54.0078L15.495 55.0074V56.1736L15.4117 57.2566L15.5783 58.3395L15.4117 59.3391V60.4221L15.2451 61.6716L15.1618 62.6712L15.3284 63.5876L15.1618 64.7538V65.8367L14.9119 66.9197L14.9952 67.9193L14.9119 69.1688L14.7453 71.3347V72.3343L14.9119 73.7505L15.8282 74.8334H16.6612ZM62.6904 75.2499H64.2732L65.7726 74.8334L66.9389 74.4169L67.6053 73.7505L68.4383 73.1673L69.9377 71.6679L70.6042 70.6683L71.2706 69.7519L72.1036 68.4191L73.0199 67.0863L73.6031 66.1699L74.0196 65.2536L74.6027 64.3373L74.9359 63.3377L75.3524 62.0048L75.8522 61.2551L77.6016 60.8386L78.4346 60.9219L78.6845 61.8382L78.7678 62.9211V64.0041L78.6845 65.087L78.5179 66.1699V67.2529L78.6012 68.4191L78.9344 69.4187L79.101 70.4184L79.5175 71.5013L79.8507 72.5842L80.5172 73.2506L81.2669 73.9171L82.1832 74.5835L83.2661 74.8334L86.3483 75L89.3472 74.0004L90.4302 73.2506L91.3465 72.6675L92.0129 71.8345L92.596 70.9182L93.5124 69.6686L94.4287 68.2525L95.0951 67.2529L95.5116 66.3365L96.0947 65.2536L96.5112 64.254L97.1777 63.2543L97.5942 62.4213L98.0107 61.2551L98.2606 59.9222L97.6775 58.5894L96.5112 58.8393L95.4283 60.0055L95.0951 61.0052L94.5953 62.0048L94.0122 62.9211L93.679 63.9208L92.9292 64.9204L92.3461 65.7534L91.8463 66.7531L91.2632 67.5861L90.6801 68.5024L89.9303 69.3354L89.2639 70.0018L88.3476 70.7516L87.4313 71.2514L86.5149 71.5013H84.8489L83.5994 71.0015L82.683 70.1685L82.2665 69.3354L81.85 68.1692L81.7667 67.003V65.92L81.9333 64.9204L81.85 63.8375L81.9333 62.6712L82.0166 61.6716L82.1832 60.5054L82.2665 59.4224L82.4331 58.3395L82.5164 57.1733L82.683 56.1736L82.8496 55.0074L83.0995 54.0078V52.8415L83.4328 51.8419L83.6827 50.6757L83.766 49.7593L84.0159 48.5098L84.0992 47.4269L84.2658 46.5105L84.4324 45.3443L84.6823 44.1781L84.7656 42.6786L83.9326 41.7623L82.9329 41.8456L82.0166 42.5953L81.1836 43.4284L80.1006 43.2617L78.9344 42.9285L77.7682 42.512L76.8519 42.0955L75.7689 41.9289L74.7693 41.7623L73.5198 41.8456L72.4368 41.9289L71.1873 42.0955L70.3543 42.3454L68.355 43.345L67.522 43.9282L66.6889 44.5946L66.1058 45.5109L65.5227 46.3439L65.1062 47.177L64.6064 48.2599L64.3565 49.3428L64.1066 50.8423L64.0233 52.5083L64.1899 53.5913L64.6064 54.6742L64.773 55.7571L65.1895 56.5901L66.3557 58.4228L67.1055 59.2558L67.9385 59.8389L68.8548 60.2555L69.8544 60.672L70.8541 60.9219L72.1869 61.5883L71.104 63.7542L70.5209 64.6705L70.1043 65.7534L69.5212 66.7531L69.0214 67.7527L68.355 68.669L67.522 69.502L66.8556 70.2518L66.1058 70.9182L65.3561 71.5013L63.6901 71.8345L62.1906 71.6679L61.4409 71.0848L60.7745 70.1685L60.2747 69.0855V68.0026L59.9414 66.9197V64.7538L60.1914 63.6709L60.0247 62.5046L60.2747 61.505L60.1914 60.0055L59.6915 58.6727L58.9418 58.4228L57.9422 59.5057L57.609 60.9219L57.3591 62.0048V63.0877L57.1925 64.254V65.3369L57.1092 66.5031L57.609 69.7519L57.6923 70.8349L58.1088 71.8345L58.7752 72.7508L59.275 73.5006L60.108 74.2503L61.6075 75L62.6904 75.2499ZM75.6023 58.0063H73.853L72.0203 58.0896L71.0207 57.8397L70.1043 57.4232L69.2713 56.8401L68.4383 55.8404L67.8552 54.9241L67.6053 53.8412L67.4387 52.6749V51.0089L67.7719 49.3428L68.1884 48.4265L69.3546 46.7605L70.1043 46.094L71.1873 45.5109L72.1869 45.0944L73.1032 44.8445L74.2695 44.6779L75.3524 44.7612L76.352 44.9278L77.5183 45.1777L78.3513 45.5942L79.4342 46.094L80.3506 47.177L80.5172 48.5098L80.3506 49.5927L80.184 51.9252L79.7674 53.0914V54.1744L79.6841 55.2573L78.9344 56.5068L77.6849 57.4232L76.7685 57.7564L75.6023 58.0063ZM106.919 63.8375L105.503 64.8371L104.92 66.0033L105.253 66.9197L106.752 67.2529L108.252 67.0863L109.335 67.003L110.501 67.0863L111.5 67.4195L112.417 67.7527L113.416 68.5857L114.083 69.3354L114.749 71.1681L115.082 72.251L115.499 73.3339L115.416 74.5002L115.166 75.833L114 76.916L113.083 77.4158L112.167 78.0822L111.251 78.4987L110.251 79.2484L109.418 79.7482L108.502 80.3314L107.669 80.9145L106.669 81.5809L105.753 82.164L104.92 82.8304L104.003 83.6635L103.254 84.4132L102.67 85.2462L101.921 85.9959L101.088 87.4121L100.754 88.9115L100.588 90.0778L100.505 91.244L100.671 92.3269L101.088 93.3266L101.504 94.2429L102.254 94.9926L103.337 95.659L104.336 95.9922L106.003 96.0755L107.669 95.9922L109.001 95.5757L110.501 94.9926L111.5 94.4095L112.334 93.6598L113.833 92.1603L114.666 90.9108L115.332 89.4113L116.165 87.9119L116.749 86.3291L116.915 85.4128L117.415 83.2469L117.582 82.164L117.915 81.2477L118.081 80.0815L118.165 79.1651L118.914 77.6657L119.831 76.4994L120.747 75.833L121.497 75.0833L122.08 74.2503L122.913 73.5006L123.579 72.7508L124.496 72.0844L124.995 71.2514L125.745 70.3351L126.328 69.502L126.995 68.669L127.578 67.7527L128.328 67.003L128.744 66.0033L129.577 65.087L129.91 64.1707L130.493 63.3377L130.91 62.338L131.493 61.4217L131.91 59.9222L131.326 58.756L130.077 59.0059L128.827 59.9222L128.494 61.0052L127.911 62.0881L127.411 63.0877L126.828 63.8375L126.328 64.7538L125.579 65.7534L125.079 66.7531L124.246 67.6694L122.913 69.3354L122.413 70.1685L121.413 70.9182L120.83 71.7512L119.914 72.5842L118.998 72.7508L118.664 72.0011L118.581 71.0015L118.331 70.0018L117.332 68.1692L116.665 67.2529L116.082 66.5031L115.166 65.8367L114.333 65.2536L113.25 64.8371L112.417 64.5872L111.75 64.0041L112 63.5876L112.75 62.9211L113.583 62.2547L114.249 61.505L114.916 60.5054L115.749 59.6723L116.332 58.8393L116.665 57.8397L117.248 56.8401L117.831 55.7571L118.165 54.8408L118.331 53.8412L118.581 52.7582L118.748 51.7586L118.914 50.6757V49.5927L118.581 48.5931V47.4269L118.331 46.4272L117.998 45.5109L117.498 44.5113L116.665 43.6783L116.082 42.8452L114.999 42.4287L113.916 41.8456L112.833 41.5957L112 41.5124L110.418 41.4291L108.752 41.5957L107.669 41.8456L106.752 42.2621L105.836 42.8452L105.003 43.4284L104.003 44.0948L103.337 45.0111L102.504 45.8441L102.004 46.8438L101.421 47.6768L100.671 48.7597L100.421 49.5927L99.8381 50.5924L99.255 51.6753L99.0051 52.5916L98.5053 53.6746L98.0888 54.6742L97.6723 55.5905L97.0058 56.5901L96.506 57.7564V59.1725L96.7559 60.3388L98.1721 60.0889L99.0884 59.0892L99.5882 58.0896L100.005 57.09L100.421 56.007L100.838 55.0907L101.421 54.0911L101.837 53.0914L102.504 52.0918L103.004 51.0089L103.503 50.0926L103.92 49.2595L104.42 48.3432L105.253 47.5102L105.836 46.7605L106.752 46.094L107.502 45.4276L108.418 45.0944L110.001 44.9278L111.5 45.0944L112.583 45.5109L113.416 46.094L113.916 47.0937L114.416 48.01L114.583 49.1762L114.749 50.1759L114.666 51.2588L114.499 52.425V53.4247L114.083 54.5909L113.666 55.5072L113.167 56.5901L112.833 57.5065L112.334 58.5894L111.667 59.3391L110.917 60.2555L109.418 61.9215L108.585 62.5046L106.919 63.8375ZM108.002 92.4102L106.336 92.4935L104.836 92.1603L104.503 91.3273L104.336 90.2444V89.2447L104.753 88.2451L105.919 86.4957L107.169 85.2462L108.418 84.2466L109.251 83.6635L110.084 82.9137L110.751 82.3306L111.75 81.6642L112.75 81.0811L113.5 80.498L114.333 80.4147L114.833 81.2477L114.499 82.4139L114.249 83.5802L114 84.5798L113.583 85.6627L113 86.7457L112.583 87.8286L112.084 88.8282L111.584 89.6612L109.834 91.244L109.085 91.8271L108.002 92.4102ZM138.769 75.1666L140.352 75L142.101 74.8334L143.267 74.4169L144.35 74.167L145.267 73.6672L146.1 73.084L147.932 71.8345L148.599 70.9182L149.432 70.0852L150.181 69.2521L150.848 68.3358L151.431 67.4195L151.848 66.9197L152.181 67.4195L152.431 68.5857L152.597 69.6686L152.847 70.585L153.264 71.6679L153.763 72.5009L154.43 73.3339L155.263 74.167L156.346 74.6668L157.345 74.8334L158.845 74.9167L160.344 74.4169L161.261 74.0004L162.26 73.5839L163.093 73.0007L164.593 71.5013L165.592 70.6683L166.259 69.7519L166.925 68.9189L167.342 68.0859L168.175 67.1696L168.508 66.2532L169.091 65.2536L169.591 64.254L170.257 63.2543L170.674 62.4213L171.257 61.4217L171.424 59.9222L171.007 58.5894L169.591 58.9226L168.675 60.0889L168.175 61.0885L167.675 61.9215L167.175 62.9211L166.592 64.0041L165.926 65.0037L165.343 65.92L164.676 66.7531L164.176 67.5861L163.343 68.5857L161.844 70.0852L160.927 70.6683L159.928 71.0848L158.512 71.3347L157.012 71.0015L156.263 70.1685L155.846 69.1688L155.596 68.1692L155.513 67.0863L155.43 66.0866L155.346 65.0037V62.7545L155.096 61.2551L155.263 59.589V58.5061L155.346 57.3399L155.43 56.2569L155.513 55.2573L155.43 54.0911L155.513 52.9248V51.9252L155.679 50.6757L155.929 49.676L156.096 48.5098L155.929 47.5102L156.096 46.3439L156.013 45.0944L155.846 43.6783L155.096 42.7619L154.097 42.6786L153.18 43.345L152.514 44.5113L151.181 44.0115L149.765 43.595L148.099 43.0118L145.85 42.7619L144.434 42.6786L142.601 42.8452L141.601 43.0118L140.602 43.345L139.519 43.7616L138.686 44.2614L137.769 44.8445L136.77 45.4276L135.937 46.094L135.437 46.9271L134.521 47.6768L133.854 48.4265L133.188 49.3428L132.688 50.3425L132.022 51.3421L131.605 52.1751L131.105 53.258L130.772 54.2577L130.605 55.2573L130.106 56.2569L129.772 58.4228L129.689 59.5057L129.522 60.5887L129.356 61.5883V63.9208L129.606 64.9204L129.689 65.92L130.189 68.0859L130.689 69.1688L131.105 70.0018L131.522 70.9182L132.355 71.9178L133.021 72.7508L133.854 73.2506L134.687 73.9171L135.77 74.4169L136.686 74.6668L137.603 75L138.769 75.1666ZM142.768 71.0848L141.185 71.5013L139.435 71.6679L137.353 71.1681L136.603 70.6683L135.687 70.0018L135.02 69.0855L134.521 68.2525L134.021 67.2529L133.604 66.2532L133.521 65.2536L133.604 64.0874L133.354 63.0877L133.271 62.0048L133.354 61.0052L133.438 59.9222L133.604 58.756L133.854 57.6731L134.271 56.5901L134.604 55.5905L135.02 54.5909L135.187 53.6746L135.853 52.5916L136.27 51.7586L137.02 50.759L137.603 50.0092L138.353 49.1762L139.102 48.5098L140.102 47.7601L140.852 47.177L141.851 46.7605L142.851 46.4272L144.35 46.1773H145.933L146.933 46.2606L148.016 46.4272L149.099 46.7605L150.265 47.0937L151.098 47.3436L152.014 48.4265L152.347 49.7593L152.264 50.759L152.347 51.9252L152.097 53.0081V53.9245L151.848 55.0907V56.2569L151.681 57.2566L151.181 59.4224L150.765 61.0052L150.431 62.5879L149.848 64.0041L149.015 65.5035L148.682 66.5031L148.016 67.3362L147.183 68.0859L146.35 68.9189L145.517 69.6686L144.767 70.2518L143.684 70.7516L142.768 71.0848ZM207.709 58.5894L206.626 58.9226L205.543 60.0055L205.127 61.0052L204.377 62.0048L203.96 62.9211L203.461 63.9208L202.628 64.7538L202.044 65.6701L201.461 66.6698L200.628 67.5861L200.045 68.3358L199.295 69.2521L198.379 70.0018L197.463 70.5017L196.546 71.0848L195.13 71.418L193.631 70.9182L193.214 70.1685L192.631 69.0855L192.381 68.0026L192.215 67.0863L192.048 65.92V64.8371L192.131 63.6709L191.965 62.6712L192.131 61.7549L192.215 60.5054L191.965 59.4224L192.048 58.5061L192.215 57.2566L192.298 56.3402L192.381 55.174V54.1744L192.881 52.0085L192.964 50.9256V49.9259L193.214 48.7597V47.6768L193.464 46.5938L193.631 45.6775L193.381 44.0948L192.548 42.8452L191.632 42.7619L190.632 43.7616L189.966 45.3443L189.882 46.5105L189.632 47.5102L189.466 49.8426L189.216 51.0089L189.049 53.1747L188.966 54.341L188.633 55.9237L186.633 56.007L185.134 55.9237H183.635L180.469 56.007L178.303 55.9237L176.804 56.0903H175.638L174.638 56.1736L172.972 56.2569L173.055 54.6742L173.222 53.5913L173.305 52.3417L173.555 51.3421L173.472 50.0926L173.555 49.0929L173.472 47.8434L173.722 46.8438L173.805 45.6775L173.722 44.0115L172.972 42.8452L171.889 42.9285L170.806 43.9282L170.14 45.4276L170.223 46.5105L170.14 47.5935L169.973 48.5931L169.806 49.676V50.8423L169.556 51.9252V53.0081L169.723 54.1744L169.473 55.174L169.39 56.2569L169.307 57.4232V58.5061L169.223 59.589V60.7553L169.14 61.7549L169.307 62.8378L169.057 64.0041V65.1703L168.89 66.3365L168.973 67.3362L168.89 68.4191L168.807 69.5853V70.5017L168.723 71.6679L168.89 72.8341L169.307 74.167L170.223 75H171.139L172.222 74.0837L172.472 72.6675V71.6679L172.555 70.6683L172.389 69.6686L172.472 68.5857L172.639 67.5861L172.555 66.3365V65.3369L172.722 64.3373L172.805 63.2543V62.2547L172.972 61.1718L173.138 59.589L174.305 59.4224L175.971 59.3391L177.47 59.1725L179.136 59.0892H181.719L182.802 59.1725H183.968L186.55 59.2558L188.383 59.4224L188.466 60.9219L188.549 62.0048V63.0877L188.383 64.254L188.3 65.5035L188.549 66.5031L188.716 68.8356L188.799 69.8352L189.133 71.0015L189.632 72.0011L190.299 72.9174L190.882 73.7505L191.715 74.3336L192.715 74.7501L193.797 74.9167L195.547 74.8334L196.963 74.5835L198.213 74.0837L199.962 72.9174L200.795 72.1677L201.628 71.5846L202.211 70.6683L202.961 69.9185L203.544 68.9189L204.127 68.0859L204.71 67.1696L205.293 66.0866L205.876 65.1703L206.376 64.1707L206.959 63.3377L207.626 62.2547L208.042 61.2551L208.375 59.7556L207.709 58.5894ZM241.562 58.6727L240.229 58.8393L239.313 59.9222L238.063 62.0048L237.563 63.0044L236.564 64.3373L235.814 65.7534L234.231 67.3362L233.565 68.1692L232.482 68.669L230.899 69.0855H229.316L228.317 68.7523L227.983 68.3358L228.15 68.0859L228.567 67.003V65.92L228.9 64.8371L229.15 63.8375L228.983 62.7545L229.066 61.5883V60.5887L228.733 59.5057L228.233 58.5061L227.9 57.5065L227.067 56.6734L226.401 55.8404L225.734 55.3406L224.651 54.6742L223.485 54.1744L222.569 53.8412L221.486 53.7579H219.736L218.154 53.6746L217.237 53.9245L216.238 54.0911L215.321 54.5909L214.405 54.9241L213.239 55.5072L212.406 56.007L211.823 56.7568L210.99 57.5065L210.24 57.6731L210.157 57.09L210.323 56.007L210.656 54.8408L210.823 53.9245L210.99 52.8415L211.24 51.7586L211.573 50.6757L211.823 49.676L212.489 47.6768L212.822 46.5105L213.156 45.4276L213.405 44.428L213.739 43.0118L213.239 41.679L212.239 41.1792L210.823 42.0122L210.157 43.345L209.74 44.428L209.574 45.3443L209.074 46.4272L208.907 47.5935L208.741 48.5098L208.324 49.5927L207.991 50.5091L207.824 51.5087L207.408 52.5916L207.074 54.7575L206.658 55.6738L206.575 56.8401L206.325 57.7564L206.158 58.9226L206.075 60.0055V61.0885L205.992 62.0048L206.158 63.6709L206.241 65.3369L206.408 66.3365L206.491 67.5028L206.825 68.3358L207.408 69.4187L207.907 70.2518L208.824 71.6679L209.99 72.7508L210.74 73.4173L212.073 74.167L214.572 74.9167L215.738 75.0833L217.237 75.1666L218.57 75L220.07 74.7501L221.069 74.5002L223.152 73.5839L223.985 73.084L224.901 72.4176L225.651 71.6679L225.901 71.2514L226.567 71.5013L227.65 71.8345L228.733 72.0844L230.482 72.251L231.815 72.0844L232.898 71.8345L233.898 71.418L234.898 70.9182L235.647 70.1685L236.48 69.502L237.23 68.5857L237.896 67.836L238.396 66.9197L239.146 66.0033L239.562 65.087L240.312 64.254L240.729 63.3377L241.228 62.338L241.812 61.2551L242.062 59.9222L241.562 58.6727ZM223.069 69.502L222.152 70.1685L221.403 70.6683L219.237 71.5013L215.988 71.6679L214.988 71.418L214.072 71.0015L213.156 70.5017L212.156 69.9185L211.656 69.0855L210.99 68.0859L210.656 67.0863L210.407 66.0033L209.99 64.9204L210.073 63.3377L210.656 61.8382L211.073 60.8386L211.906 60.0889L212.656 59.2558L213.572 58.5894L214.405 58.0896L215.155 57.5065L216.321 57.09L217.321 56.8401L218.987 56.6734L220.32 56.8401L221.403 57.09L222.402 57.5065L223.402 58.1729L224.235 58.8393L224.818 59.8389L225.234 60.7553L225.318 61.6716L225.568 62.8378L225.651 63.8375V64.1707H225.234L224.401 64.7538L223.652 65.5035L223.152 66.5031L223.235 67.5028L223.652 69.0022L223.069 69.502Z" fill="black"/>
</svg>
